<?xml version="1.0" encoding="utf-8"?>
<!-- Generator: Adobe Illustrator 25.4.1, SVG Export Plug-In . SVG Version: 6.00 Build 0)  -->
<svg version="1.1" xmlns="http://www.w3.org/2000/svg" xmlns:xlink="http://www.w3.org/1999/xlink" x="0px" y="0px"
	 viewBox="0 0 584.59 245.06" style="enable-background:new 0 0 584.59 245.06;" xml:space="preserve">
<style type="text/css">
	.st0{enable-background:new    ;}
	.st1{fill:#CD1619;}
	.st2{fill:#1D1D1B;}
</style>
<g id="BG">
</g>
<g id="Ebene_1">
	
		<text transform="matrix(1 0 0 1 -226.9948 -395.0126)" class="st2" style="font-family:'MyriadPro-Regular'; font-size:12px; letter-spacing:33;">	</text>
	<g class="st0">
		<path class="st1" d="M157.7,191.92h2.16c0.82,0,1.48-0.11,2-0.34c0.52-0.22,0.98-0.58,1.38-1.08l14.04-16.74
			c0.49-0.62,1-1.06,1.53-1.3c0.53-0.25,1.19-0.37,1.98-0.37h6.44l-16.58,19.58c-0.45,0.56-0.89,1.03-1.3,1.4
			c-0.42,0.38-0.88,0.68-1.37,0.92c0.64,0.24,1.22,0.56,1.74,0.98c0.52,0.42,1.02,0.97,1.51,1.66l17.19,21.83h-6.57
			c-0.47,0-0.87-0.03-1.21-0.1c-0.33-0.06-0.62-0.16-0.87-0.29c-0.25-0.13-0.46-0.29-0.64-0.48c-0.18-0.19-0.35-0.41-0.5-0.64
			l-14.49-17.71c-0.21-0.28-0.43-0.51-0.64-0.71c-0.21-0.19-0.47-0.35-0.76-0.48c-0.29-0.13-0.62-0.22-0.98-0.27
			c-0.37-0.05-0.79-0.08-1.29-0.08h-2.77v20.77h-7.53v-46.37h7.53V191.92z"/>
		<path class="st1" d="M233.56,195.27c0,3.43-0.56,6.6-1.67,9.5c-1.12,2.9-2.69,5.39-4.72,7.49c-2.03,2.09-4.47,3.73-7.31,4.91
			c-2.84,1.18-6.01,1.77-9.48,1.77c-3.46,0-6.61-0.59-9.45-1.77c-2.84-1.18-5.29-2.82-7.33-4.91s-3.62-4.59-4.73-7.49
			c-1.12-2.9-1.67-6.06-1.67-9.5s0.56-6.6,1.67-9.5c1.12-2.9,2.69-5.4,4.73-7.5c2.04-2.1,4.48-3.75,7.33-4.93
			c2.84-1.18,5.99-1.77,9.45-1.77c3.48,0,6.64,0.59,9.48,1.77c2.84,1.18,5.28,2.82,7.31,4.93c2.03,2.1,3.6,4.6,4.72,7.5
			C233,188.66,233.56,191.83,233.56,195.27z M225.86,195.27c0-2.66-0.36-5.06-1.08-7.18s-1.75-3.93-3.09-5.41
			c-1.34-1.48-2.97-2.62-4.88-3.41c-1.91-0.79-4.06-1.19-6.44-1.19c-2.36,0-4.5,0.4-6.41,1.19c-1.91,0.79-3.54,1.93-4.89,3.41
			c-1.35,1.48-2.39,3.28-3.12,5.41c-0.73,2.12-1.09,4.52-1.09,7.18c0,2.68,0.36,5.09,1.09,7.21c0.73,2.12,1.77,3.92,3.12,5.39
			c1.35,1.47,2.98,2.6,4.89,3.38c1.91,0.78,4.05,1.17,6.41,1.17c2.38,0,4.53-0.39,6.44-1.17c1.91-0.78,3.54-1.91,4.88-3.38
			c1.34-1.47,2.37-3.27,3.09-5.39C225.5,200.35,225.86,197.95,225.86,195.27z"/>
		<path class="st1" d="M277.87,172.08v46.37h-7.54v-20.64h-23.28v20.64h-7.57v-46.37h7.57v20.29h23.28v-20.29H277.87z"/>
		<path class="st1" d="M315.63,212.14v6.31h-26.79v-46.37h7.54v40.06H315.63z"/>
		<path class="st2" d="M372.5,172.08l-18.8,46.37h-6.79l-18.8-46.37h6.02c0.67,0,1.2,0.17,1.61,0.5c0.41,0.33,0.72,0.75,0.93,1.24
			l11.95,30.24c0.64,1.7,1.23,3.65,1.77,5.86c0.24-1.09,0.49-2.14,0.76-3.12s0.56-1.9,0.89-2.74l11.91-30.24
			c0.17-0.43,0.47-0.83,0.9-1.19c0.43-0.36,0.97-0.55,1.61-0.55H372.5z"/>
		<path class="st2" d="M406.79,212.36l-0.03,6.09h-28.92v-46.37h28.92v6.08h-21.35v13.97h17.07v5.89h-17.07v14.33H406.79z"/>
		<path class="st2" d="M450.16,218.45h-6.73c-1.33,0-2.3-0.52-2.9-1.55l-10.82-15.62c-0.37-0.54-0.76-0.92-1.19-1.16
			c-0.43-0.24-1.07-0.35-1.93-0.35h-4.19v18.68h-7.54v-46.37h13.65c3.05,0,5.67,0.31,7.87,0.93s4.01,1.51,5.43,2.66
			s2.46,2.53,3.14,4.14c0.68,1.61,1.01,3.4,1.01,5.38c0,1.61-0.24,3.11-0.72,4.51c-0.48,1.4-1.18,2.66-2.09,3.8
			c-0.91,1.14-2.03,2.12-3.37,2.96c-1.33,0.84-2.84,1.49-4.54,1.96c0.92,0.56,1.72,1.34,2.38,2.35L450.16,218.45z M428.33,194.3
			c1.72,0,3.22-0.21,4.51-0.63c1.29-0.42,2.36-1,3.22-1.75c0.86-0.75,1.5-1.65,1.93-2.69c0.43-1.04,0.64-2.19,0.64-3.46
			c0-2.53-0.84-4.46-2.51-5.8c-1.67-1.33-4.21-2-7.6-2h-6.12v16.33H428.33z"/>
		<path class="st2" d="M482.49,212.14v6.31H455.7v-46.37h7.54v40.06H482.49z"/>
		<path class="st2" d="M529.31,218.45h-5.83c-0.67,0-1.2-0.17-1.61-0.5c-0.41-0.33-0.72-0.75-0.93-1.24l-3.86-10.24h-19.96
			l-3.86,10.24c-0.17,0.43-0.47,0.83-0.9,1.19c-0.43,0.37-0.97,0.55-1.61,0.55h-5.83l18.39-46.37h7.63L529.31,218.45z
			 M515.05,201.06l-6.38-16.94c-0.52-1.31-1.04-2.97-1.58-4.99c-0.24,1.01-0.49,1.94-0.77,2.79c-0.28,0.85-0.54,1.59-0.77,2.24
			l-6.38,16.91H515.05z"/>
		<path class="st2" d="M569.72,195.62v18.35c-4.62,3.33-9.98,4.99-16.1,4.99c-3.76,0-7.15-0.58-10.19-1.75
			c-3.04-1.17-5.63-2.8-7.78-4.89s-3.8-4.59-4.96-7.49c-1.16-2.9-1.74-6.09-1.74-9.56c0-3.5,0.56-6.7,1.67-9.61
			c1.12-2.91,2.72-5.41,4.8-7.5s4.59-3.71,7.54-4.86c2.94-1.15,6.25-1.72,9.92-1.72c1.87,0,3.6,0.14,5.2,0.43
			c1.6,0.29,3.09,0.69,4.46,1.21c1.37,0.51,2.64,1.14,3.8,1.87c1.16,0.73,2.22,1.55,3.19,2.45l-2.16,3.45
			c-0.34,0.54-0.78,0.87-1.32,1c-0.54,0.13-1.12,0-1.74-0.39c-0.62-0.36-1.28-0.75-1.98-1.16c-0.7-0.41-1.5-0.79-2.4-1.14
			s-1.94-0.64-3.12-0.87c-1.18-0.23-2.58-0.34-4.19-0.34c-2.45,0-4.65,0.4-6.62,1.21c-1.96,0.8-3.64,1.95-5.04,3.45
			s-2.47,3.3-3.22,5.43c-0.75,2.12-1.13,4.5-1.13,7.12c0,2.77,0.4,5.24,1.19,7.42s1.92,4.03,3.38,5.54c1.46,1.51,3.23,2.67,5.3,3.46
			s4.38,1.19,6.94,1.19c1.91,0,3.61-0.2,5.1-0.61c1.49-0.41,2.96-0.98,4.4-1.71v-9.21h-6.47c-0.49,0-0.88-0.13-1.16-0.4
			c-0.28-0.27-0.42-0.62-0.42-1.05v-4.28H569.72z"/>
	</g>
	<g>
		<path class="st2" d="M335.51,145.31c-0.22,0-0.59-0.03-1.13-0.08c-0.53-0.05-0.93-0.07-1.18-0.07c-2.47,0-4.87,0.37-7.19,1.1
			c-0.96,0.31-1.64,0.46-2.05,0.46c-0.55,0-0.98-0.22-1.29-0.65s-0.46-0.85-0.46-1.25c0-0.16,0.08-0.58,0.24-1.25
			c0.21-0.83,0.38-1.78,0.5-2.85l1.22-11.25c0.1-1.07,0.19-1.76,0.26-2.08c0.08-0.32,0.27-0.6,0.59-0.85
			c0.32-0.25,0.75-0.38,1.29-0.38c0.43,0,0.81,0.16,1.14,0.49c0.33,0.33,0.49,0.68,0.49,1.06c0,0.34-0.08,0.96-0.24,1.85
			c-0.24,1.27-0.57,3.7-0.99,7.3c-0.43,3.6-0.64,5.51-0.64,5.71c0,0.26,0.05,0.39,0.14,0.39c0.34,0,1.29-0.12,2.84-0.37
			c0.72-0.12,1.46-0.2,2.2-0.23c2.12-0.1,3.6-0.25,4.45-0.46c0.27-0.06,0.47-0.09,0.6-0.09c0.5,0,0.89,0.15,1.17,0.44
			s0.42,0.64,0.42,1.05c0,0.61-0.24,1.09-0.73,1.46S336.12,145.31,335.51,145.31z"/>
		<path class="st2" d="M351.6,141.3c0,0.94-0.79,2.06-2.38,3.37s-3.37,1.96-5.36,1.96c-1.53,0-2.73-0.48-3.61-1.45
			c-0.88-0.96-1.32-2.3-1.32-4.02c0-2.53,0.9-4.91,2.69-7.12c1.79-2.22,3.71-3.33,5.74-3.33c1.01,0,1.83,0.32,2.44,0.96
			c0.61,0.64,0.92,1.41,0.92,2.29c0,1.57-0.76,3.07-2.27,4.5c-1.51,1.42-3.45,2.41-5.81,2.95c-0.27,0.06-0.41,0.23-0.41,0.49
			c0,0.43,0.19,0.85,0.58,1.24c0.38,0.39,0.9,0.59,1.54,0.59c1.82,0,3.62-0.94,5.42-2.81c0.34-0.36,0.68-0.54,1-0.54
			C351.33,140.39,351.6,140.69,351.6,141.3z M342.5,138.89c1.43-0.29,2.69-0.9,3.78-1.83c1.09-0.93,1.64-1.78,1.64-2.54
			c0-0.3-0.08-0.55-0.25-0.75c-0.17-0.2-0.38-0.31-0.64-0.31c-0.79,0-1.66,0.58-2.62,1.74S342.81,137.59,342.5,138.89z"/>
		<path class="st2" d="M357.25,139.23l0.23-0.43c1.09-2.2,2.27-3.98,3.54-5.35c1.26-1.37,2.49-2.06,3.7-2.06
			c0.92,0,1.68,0.25,2.26,0.76c0.58,0.51,0.88,1.11,0.88,1.8c0,0.43-0.1,0.81-0.3,1.12s-0.47,0.47-0.83,0.47
			c-0.56,0-1.07-0.23-1.53-0.69c-0.33-0.3-0.58-0.45-0.77-0.45c-0.68,0-1.81,1.05-3.41,3.16c-1.59,2.11-2.55,4.48-2.88,7.11
			c-0.1,0.76-0.32,1.29-0.67,1.59c-0.34,0.3-0.81,0.45-1.4,0.45c-0.62,0-1.07-0.35-1.33-1.07c-0.26-0.71-0.39-1.87-0.39-3.48
			c0-0.66,0.02-1.55,0.05-2.67c0.04-1.06,0.14-2.35,0.31-3.88c0.04-0.4,0.08-0.71,0.09-0.94c0.08-0.89,0.17-1.5,0.28-1.83
			c0.1-0.33,0.35-0.64,0.73-0.93c0.38-0.29,0.8-0.43,1.26-0.43c0.49,0,0.86,0.14,1.11,0.42c0.25,0.28,0.38,0.59,0.38,0.92
			c0,0.42-0.2,1.31-0.61,2.65c-0.14,0.46-0.27,1.01-0.37,1.66L357.25,139.23z"/>
		<path class="st2" d="M379.36,143.98c-0.43-0.81-0.75-2.33-0.95-4.56c-0.2-2.32-0.64-3.47-1.33-3.47c-0.65,0-1.78,1.21-3.38,3.62
			c-1.6,2.41-2.59,4.19-2.96,5.34c-0.08,0.34-0.23,0.63-0.45,0.86c-0.22,0.23-0.44,0.34-0.66,0.34c-1.38,0-2.06-0.63-2.06-1.89
			c0-0.42,0.14-1.39,0.41-2.9c0.35-1.95,0.53-4.34,0.53-7.17c0-0.42,0.19-0.88,0.56-1.36c0.37-0.48,0.76-0.73,1.18-0.73
			c0.52,0,0.93,0.13,1.21,0.39s0.42,0.96,0.42,2.09c0,0.86-0.26,2.52-0.77,4.99c1.96-4.6,4.15-6.89,6.57-6.89
			c2.1,0,3.33,1.65,3.69,4.95c0.36,3.37,0.78,5.05,1.25,5.05c0.21,0,0.45-0.04,0.72-0.14c0.33-0.11,0.58-0.16,0.77-0.16
			c0.43,0,0.65,0.25,0.65,0.76c0,0.46-0.3,0.95-0.9,1.47c-0.6,0.52-1.35,0.78-2.25,0.78c-1.05,0-1.8-0.46-2.25-1.37H379.36z"/>
		<path class="st2" d="M398.48,141.3c0,0.94-0.79,2.06-2.38,3.37s-3.37,1.96-5.36,1.96c-1.53,0-2.73-0.48-3.61-1.45
			c-0.88-0.96-1.32-2.3-1.32-4.02c0-2.53,0.9-4.91,2.69-7.12c1.79-2.22,3.71-3.33,5.74-3.33c1.01,0,1.83,0.32,2.44,0.96
			c0.61,0.64,0.92,1.41,0.92,2.29c0,1.57-0.76,3.07-2.27,4.5c-1.51,1.42-3.45,2.41-5.81,2.95c-0.27,0.06-0.41,0.23-0.41,0.49
			c0,0.43,0.19,0.85,0.58,1.24c0.38,0.39,0.9,0.59,1.54,0.59c1.82,0,3.62-0.94,5.42-2.81c0.34-0.36,0.68-0.54,1-0.54
			C398.21,140.39,398.48,140.69,398.48,141.3z M389.37,138.89c1.43-0.29,2.69-0.9,3.78-1.83c1.09-0.93,1.64-1.78,1.64-2.54
			c0-0.3-0.08-0.55-0.25-0.75c-0.17-0.2-0.38-0.31-0.64-0.31c-0.79,0-1.66,0.58-2.62,1.74S389.68,137.59,389.37,138.89z"/>
		<path class="st2" d="M412.13,143.98c-0.43-0.81-0.75-2.33-0.95-4.56c-0.2-2.32-0.64-3.47-1.33-3.47c-0.65,0-1.78,1.21-3.38,3.62
			c-1.6,2.41-2.59,4.19-2.96,5.34c-0.08,0.34-0.23,0.63-0.45,0.86c-0.22,0.23-0.44,0.34-0.66,0.34c-1.38,0-2.06-0.63-2.06-1.89
			c0-0.42,0.14-1.39,0.41-2.9c0.35-1.95,0.53-4.34,0.53-7.17c0-0.42,0.19-0.88,0.56-1.36c0.37-0.48,0.76-0.73,1.18-0.73
			c0.52,0,0.93,0.13,1.21,0.39s0.42,0.96,0.42,2.09c0,0.86-0.26,2.52-0.77,4.99c1.96-4.6,4.15-6.89,6.57-6.89
			c2.1,0,3.33,1.65,3.69,4.95c0.36,3.37,0.78,5.05,1.25,5.05c0.21,0,0.45-0.04,0.72-0.14c0.33-0.11,0.58-0.16,0.77-0.16
			c0.43,0,0.65,0.25,0.65,0.76c0,0.46-0.3,0.95-0.9,1.47c-0.6,0.52-1.35,0.78-2.25,0.78c-1.05,0-1.8-0.46-2.25-1.37H412.13z"/>
		<path class="st2" d="M433.8,145.16c-0.11,0.93-0.63,1.4-1.56,1.4c-1.19,0-1.78-0.85-1.78-2.56c0-2.77,0.15-5.13,0.45-7.1
			c0.24-1.53,0.35-3.03,0.35-4.51c0-0.35,0.11-0.65,0.34-0.89c0.23-0.24,0.54-0.36,0.95-0.36c1.36,0,2.04,0.82,2.04,2.47
			c0,0.53-0.24,1.9-0.72,4.08c-0.29,1.3-0.43,2.25-0.43,2.84c2.59-5.68,4.92-8.52,7-8.52c0.84,0,1.52,0.33,2.03,1
			c0.51,0.67,0.78,2.15,0.79,4.45c0.01,2.1,0.12,3.15,0.33,3.15c0.16,0,0.73-1.02,1.7-3.05c1.08-2.25,2-3.74,2.76-4.46
			c0.76-0.72,1.57-1.09,2.41-1.09c1,0,1.73,0.43,2.19,1.3c0.45,0.86,0.77,2.32,0.95,4.38c0.14,1.63,0.32,2.86,0.55,3.69
			c0.23,0.83,0.63,1.38,1.19,1.66c0.45,0.22,0.68,0.54,0.68,0.98c0,0.39-0.26,0.78-0.77,1.17s-1.04,0.59-1.57,0.59
			c-0.92,0-1.64-0.45-2.17-1.36c-0.52-0.91-0.87-2.73-1.05-5.48c-0.1-1.32-0.21-2.2-0.32-2.63c-0.11-0.43-0.28-0.64-0.51-0.64
			c-0.2,0-0.49,0.32-0.87,0.97s-1.04,1.93-1.97,3.86c-0.82,1.74-1.53,2.95-2.12,3.64c-0.59,0.69-1.23,1.03-1.91,1.03
			c-0.52,0-1.05-0.23-1.58-0.68c-0.53-0.45-0.82-2.09-0.86-4.93c-0.05-2.52-0.21-3.79-0.49-3.79c-0.38,0-1.29,1.12-2.74,3.37
			S434.53,143.39,433.8,145.16z"/>
		<path class="st2" d="M458.98,136.95v0.01c0.29-1.65,0.43-2.59,0.43-2.82c0-0.67,0.15-1.23,0.44-1.68s0.7-0.68,1.23-0.68
			c0.62,0,1.09,0.14,1.44,0.43c0.34,0.29,0.52,0.62,0.52,0.98c0,0.36-0.17,1.11-0.5,2.24l-0.08,0.3c-0.5,1.75-0.8,3.17-0.9,4.27
			c-0.1,1.1-0.15,2-0.15,2.67c0,0.55,0.09,1.29,0.28,2.21c0.03,0.16,0.04,0.3,0.04,0.41c0,0.21-0.2,0.49-0.59,0.84
			c-0.39,0.35-0.82,0.53-1.27,0.53c-1.19,0-1.79-0.91-1.79-2.71c0-1.54,0.22-3.41,0.65-5.62
			C458.82,137.85,458.9,137.39,458.98,136.95z M465.53,125.8c0,0.64-0.29,1.21-0.87,1.69c-0.58,0.48-1.08,0.73-1.51,0.73
			c-0.54,0-1.02-0.23-1.45-0.68c-0.42-0.45-0.63-0.9-0.63-1.36c0-0.65,0.21-1.18,0.62-1.58c0.42-0.4,1.01-0.6,1.79-0.6
			c0.61,0,1.1,0.18,1.47,0.54C465.34,124.89,465.53,125.31,465.53,125.8z"/>
		<path class="st2" d="M471.53,134.94c-0.08,0-0.34,1.01-0.77,3.03s-0.64,3.24-0.64,3.66c0,0.74,0.08,1.26,0.24,1.55
			s0.42,0.44,0.78,0.44c0.51,0,0.99-0.09,1.46-0.26c0.47-0.18,1.08-0.57,1.84-1.19c0.47-0.39,0.87-0.58,1.19-0.58
			c0.26,0,0.47,0.08,0.63,0.22c0.16,0.15,0.24,0.32,0.24,0.52c0,0.8-0.64,1.7-1.93,2.71c-1.29,1.01-2.64,1.51-4.07,1.51
			c-1.19,0-2.11-0.35-2.73-1.06c-0.63-0.71-0.94-1.72-0.94-3.04c0-1.22,0.46-3.66,1.37-7.32c-0.58,0.06-0.98,0.1-1.21,0.1h-0.29
			c-0.42,0-0.84-0.14-1.27-0.41c-0.43-0.27-0.64-0.71-0.64-1.3c0-0.76,0.43-1.14,1.29-1.14l2.9-0.11c0.38-1.09,0.78-2.53,1.21-4.3
			c0.25-1.1,0.83-1.66,1.72-1.66c0.5,0,0.89,0.15,1.17,0.46s0.42,0.64,0.42,1.01c0,0.15-0.38,1.54-1.15,4.19
			c2.88-0.25,4.46-0.38,4.74-0.38c0.48,0,0.8,0.07,0.95,0.21c0.15,0.14,0.23,0.41,0.23,0.81c0,0.8-0.68,1.32-2.05,1.53
			L471.53,134.94z"/>
		<path class="st2" d="M505.9,129.14l-4.18,0.22c-1.46,0.08-2.71,0.21-3.76,0.39c-1.05,0.18-1.62,0.31-1.7,0.41
			c-0.09,0.1-0.15,0.37-0.18,0.83c-0.05,0.45-0.21,1.25-0.49,2.39c-0.23,0.87-0.36,1.58-0.41,2.13c0.58,0,1.41-0.06,2.5-0.18
			c1.09-0.12,1.86-0.23,2.31-0.34c1.3-0.32,2.31-0.48,3.03-0.48c1.43,0,2.14,0.43,2.14,1.28c0,0.62-0.2,1.06-0.6,1.3
			c-0.4,0.24-1.02,0.4-1.87,0.5c-0.52,0.05-1.11,0.14-1.76,0.24c-0.34,0.05-0.77,0.11-1.29,0.16c-2.51,0.29-3.99,0.52-4.44,0.68
			h-0.01c-0.15,0.04-0.27,0.15-0.35,0.31s-0.21,0.83-0.41,2.02s-0.3,2.01-0.3,2.48c0.04,0.33,0.25,0.5,0.62,0.5
			c0.43,0,1.58-0.12,3.43-0.36c1.85-0.24,3-0.41,3.44-0.5c1.24-0.26,2.05-0.39,2.43-0.39c1.15,0.16,1.72,0.7,1.72,1.6
			c0,0.42-0.14,0.73-0.41,0.95c-0.9,0.41-2.16,0.66-3.76,0.76c-1.24,0.07-2.74,0.23-4.51,0.46c-1.57,0.33-3.06,0.5-4.45,0.5
			c-0.73,0-1.26-0.16-1.59-0.47c-0.33-0.31-0.52-0.8-0.58-1.46l-0.04-0.45c-0.01-0.07,0.07-0.35,0.23-0.83
			c0.36-1.11,0.8-3.59,1.33-7.42c0.52-3.84,0.79-5.97,0.79-6.41c0-0.01-0.03-0.04-0.08-0.11c-0.06-0.05-0.17-0.23-0.32-0.52
			s-0.22-0.59-0.22-0.9c0-0.16,0.02-0.29,0.05-0.39c0.04-0.19,0.23-0.38,0.58-0.57c0.35-0.19,0.68-0.29,0.99-0.29
			c0.42,0,0.86,0.03,1.29,0.08c0.75,0,3.19-0.27,7.33-0.81c1.38-0.18,2.09-0.27,2.16-0.27l0.19-0.01c1.63-0.12,2.44,0.41,2.44,1.57
			c0,0.22-0.15,0.49-0.44,0.81S506.18,129.06,505.9,129.14z"/>
		<path class="st2" d="M512.43,139.23l0.23-0.43c1.09-2.2,2.27-3.98,3.54-5.35c1.26-1.37,2.49-2.06,3.7-2.06
			c0.92,0,1.68,0.25,2.26,0.76c0.58,0.51,0.88,1.11,0.88,1.8c0,0.43-0.1,0.81-0.3,1.12s-0.47,0.47-0.83,0.47
			c-0.56,0-1.07-0.23-1.53-0.69c-0.33-0.3-0.58-0.45-0.77-0.45c-0.68,0-1.81,1.05-3.41,3.16c-1.59,2.11-2.55,4.48-2.88,7.11
			c-0.1,0.76-0.32,1.29-0.67,1.59c-0.34,0.3-0.81,0.45-1.4,0.45c-0.62,0-1.07-0.35-1.33-1.07c-0.26-0.71-0.39-1.87-0.39-3.48
			c0-0.66,0.02-1.55,0.05-2.67c0.04-1.06,0.14-2.35,0.31-3.88c0.04-0.4,0.08-0.71,0.09-0.94c0.08-0.89,0.17-1.5,0.28-1.83
			c0.1-0.33,0.35-0.64,0.73-0.93c0.38-0.29,0.8-0.43,1.26-0.43c0.49,0,0.86,0.14,1.11,0.42c0.25,0.28,0.38,0.59,0.38,0.92
			c0,0.42-0.2,1.31-0.61,2.65c-0.14,0.46-0.27,1.01-0.37,1.66L512.43,139.23z"/>
		<path class="st2" d="M526.86,139.06l-0.23,2.43c-0.07,0.78-0.11,1.55-0.11,2.31c0,0.69,0.06,1.48,0.19,2.39
			c-0.09,0.32-0.32,0.59-0.68,0.81c-0.36,0.23-0.74,0.34-1.14,0.34c-1.24,0-1.86-0.79-1.86-2.36c0-0.7,0.19-2.36,0.58-4.99
			c0.27-1.89,0.41-3.3,0.41-4.22c0-0.05-0.05-0.12-0.16-0.19c-0.62-0.4-0.94-0.78-0.94-1.14c0-0.47,0.35-0.98,1.04-1.53
			c0.33-0.26,0.54-0.57,0.62-0.92c0.08-0.35,0.19-0.9,0.33-1.65c0.49-2.89,1.25-4.94,2.27-6.15c1.03-1.22,2.33-1.83,3.92-1.83
			c0.92,0,1.7,0.3,2.34,0.9s0.96,1.35,0.96,2.23c0,0.8-0.18,1.62-0.55,2.48c-0.37,0.85-0.85,1.28-1.45,1.28
			c-0.26,0-0.48-0.08-0.67-0.25c-0.18-0.17-0.27-0.39-0.27-0.66l0.08-1.18c0-1.41-0.29-2.12-0.88-2.12c-0.73,0-1.42,0.92-2.06,2.76
			c-0.64,1.84-0.96,3.41-0.96,4.7c0,0.14,0.09,0.2,0.26,0.2c1.87,0,3.2-0.01,3.97-0.03c0.77-0.02,1.16,0.28,1.16,0.9
			c0,0.6-0.47,1.04-1.4,1.32c-0.94,0.29-1.92,0.43-2.95,0.43c-0.7,0.06-1.15,0.12-1.36,0.18c-0.22,1.34-0.38,2.52-0.47,3.54V139.06z
			"/>
		<path class="st2" d="M546.27,139.08c-0.61,2.12-1.76,3.9-3.45,5.35s-3.39,2.18-5.08,2.18c-1.34,0-2.44-0.49-3.31-1.47
			s-1.3-2.19-1.3-3.62c0-2.33,0.8-4.63,2.39-6.89c1.59-2.26,3.52-3.39,5.79-3.39c1.55,0,2.8,0.57,3.76,1.72s1.44,2.51,1.44,4.09
			c0,0.69-0.08,1.36-0.23,2.02V139.08z M539.21,134.8c-0.63,0.56-1.25,1.46-1.86,2.69c-0.61,1.23-0.91,2.46-0.91,3.7
			c0,0.75,0.14,1.37,0.41,1.86c0.28,0.49,0.64,0.73,1.09,0.73c1.12,0,2.29-0.67,3.5-2c1.21-1.33,1.82-2.82,1.82-4.48
			c0-0.93-0.2-1.7-0.59-2.3c-0.39-0.6-0.94-0.9-1.65-0.9c-0.67,0-1.27,0.23-1.81,0.69H539.21z"/>
		<path class="st2" d="M554.07,122.99c0.98,0,1.46,0.53,1.46,1.6c0,0.49-0.07,1.02-0.2,1.58s-0.51,1.96-1.11,4.2
			c-0.44,1.62-0.78,3.39-1.01,5.3c-0.23,1.91-0.35,3.41-0.35,4.49c0,1.15,0.09,2.52,0.26,4.1c0.04,0.43,0.07,0.69,0.07,0.8
			c0,0.54-0.2,1.01-0.6,1.4c-0.4,0.39-0.83,0.58-1.3,0.58c-0.64,0-1.09-0.3-1.36-0.91c-0.26-0.61-0.39-1.65-0.39-3.12
			c0-3.18,0.37-6.92,1.12-11.22c0.75-4.31,1.36-6.85,1.83-7.63C552.96,123.38,553.49,122.99,554.07,122.99z"/>
		<path class="st2" d="M566.3,141.81c-1,1.13-2.17,2.06-3.51,2.79c-1.33,0.73-2.49,1.09-3.45,1.09c-0.96,0-1.7-0.28-2.23-0.84
			c-0.53-0.56-0.79-1.33-0.79-2.32c0-1.4,0.53-2.96,1.59-4.68c1.06-1.72,2.54-3.21,4.42-4.49c1.89-1.27,3.58-1.91,5.1-1.91
			c0.83,0,1.55,0.23,2.16,0.68c0.14,0.11,0.27,0.2,0.38,0.27c0.22,0.15,0.42,0.44,0.6,0.85c0.19,0.41,0.28,0.74,0.28,1
			c0,0.16-0.17,0.71-0.52,1.64c-0.35,0.97-0.6,1.91-0.74,2.82c-0.14,0.91-0.42,3.18-0.83,6.81c-0.37,3.16-1.25,5.46-2.65,6.92
			c-1.39,1.46-2.94,2.18-4.64,2.18c-1.78,0-3.51-0.6-5.19-1.8c-1.68-1.2-2.52-2.19-2.52-2.97c0-0.69,0.33-1.03,1-1.03
			c0.26,0,0.8,0.26,1.6,0.79c2.06,1.36,3.83,2.04,5.31,2.04c1.12,0,2.06-0.7,2.82-2.11C565.25,148.13,565.85,145.56,566.3,141.81z
			 M566.62,134.27c-0.67,0-1.55,0.4-2.63,1.2s-2.09,1.88-3.01,3.24c-0.92,1.36-1.38,2.48-1.38,3.38c0,0.47,0.17,0.71,0.52,0.71
			c1.17,0,2.33-0.47,3.47-1.42c1.15-0.95,2.08-2.03,2.79-3.26s1.07-2.16,1.07-2.8c0-0.32-0.08-0.57-0.24-0.76
			C567.03,134.36,566.84,134.27,566.62,134.27z"/>
	</g>
</g>
<g id="Ebene_3">
	<path class="st2" d="M60.01,231.15c-4.85,2.33-11.3,4.14-11.98,4.51h526.62c-17.04-2.03-76.86-4.15-117.5-5.03
		c-41.9-0.91-133.21-1.49-182.84-1.68c-41.11-0.15-118.1,2.24-146.65-7.46c-6.96-2.36-9.38-4.22-13.68-13.09
		c-11.98-24.7-13.47-36.25-13.47-36.25s24.25-6.1,26.31-16.17c2.07-10.06-4.83-36.26-4.83-36.26h-8.96c0,0,6.2,22.75,4.83,28.26
		c-1.38,5.52-19.94,10.77-19.94,10.77s-2.12-11.21,1.33-20.01c3.23-8.25,11.72-25.23,11.72-25.23l-9.65-6.2
		c0,0-9.03,22.92-14.22,23.94c-9.65,1.91-17.06-19.29-17.06-19.29l-12.15,7.76c0,0,6.69,16.6,11.89,22.49
		c5.37,6.08,10.86,10.6,10.86,10.6s8.96,35.16,6.2,48.95C84.07,215.55,73.7,224.58,60.01,231.15z"/>
	<path class="st1" d="M129.57,43.21c0,0,0.17-35.31-48.95-33.95C33.24,10.56,7.27,36.31,7.27,54.15c0,16.55,8.55,26.29,8.55,26.29
		s-19.9,24.82,3.84,45.5s71.99-25.51,71.99-25.51s13.1,32.4,45.5,24.82c32.4-7.58,59.72-28.58,48.95-55.15
		C164.16,15.98,129.57,43.21,129.57,43.21z"/>
</g>
</svg>
