<?xml version="1.0" encoding="utf-8"?>
<!-- Generator: Adobe Illustrator 25.4.1, SVG Export Plug-In . SVG Version: 6.00 Build 0)  -->
<svg version="1.1" xmlns="http://www.w3.org/2000/svg" xmlns:xlink="http://www.w3.org/1999/xlink" x="0px" y="0px"
	 viewBox="0 0 584.59 245.06" style="enable-background:new 0 0 584.59 245.06;" xml:space="preserve">
<style type="text/css">
	.st0{enable-background:new    ;}
	.st1{fill:#CD1619;}
	.st2{fill:#1D1D1B;}
</style>
<g id="BG">
</g>

<g id="Ebene_3">
	<path class="st2" d="M 60.01 231.15 C 55.16 233.48 48.71 235.29 48.03 235.66 C 48.03 235.66 157.971 235.885 129.421 226.185 C 122.461 223.825 118.28 217.27 113.98 208.4 C 102 183.7 100.51 172.15 100.51 172.15 C 100.51 172.15 124.76 166.05 126.82 155.98 C 128.89 145.92 121.99 119.72 121.99 119.72 L 113.03 119.72 C 113.03 119.72 119.23 142.47 117.86 147.98 C 116.48 153.5 97.92 158.75 97.92 158.75 C 97.92 158.75 95.8 147.54 99.25 138.74 C 102.48 130.49 110.97 113.51 110.97 113.51 L 101.32 107.31 C 101.32 107.31 92.29 130.23 87.1 131.25 C 77.45 133.16 70.04 111.96 70.04 111.96 L 57.89 119.72 C 57.89 119.72 64.58 136.32 69.78 142.21 C 75.15 148.29 80.64 152.81 80.64 152.81 C 80.64 152.81 89.6 187.97 86.84 201.76 C 84.07 215.55 73.7 224.58 60.01 231.15 Z" style="fill: rgb(29, 29, 27);"></path>
	<path class="st1" d="M129.57,43.21c0,0,0.17-35.31-48.95-33.95C33.24,10.56,7.27,36.31,7.27,54.15c0,16.55,8.55,26.29,8.55,26.29
		s-19.9,24.82,3.84,45.5s71.99-25.51,71.99-25.51s13.1,32.4,45.5,24.82c32.4-7.58,59.72-28.58,48.95-55.15
		C164.16,15.98,129.57,43.21,129.57,43.21z"/>
</g>
</svg>
